<svg xmlns="http://www.w3.org/2000/svg"  viewBox="0 0 50 50" width="50px" height="50px" baseProfile="basic"><polygon fill="#5274d9" points="48,29.04 45,34.24 34,40.59 31,38.86 25,42.32 20,39.43 18,33.66 20,30.2 18,31.35 15,29.62 9,33.08 4,30.2 2,24.42 4,20.96 8,18.65 11,13.45 22,7.1 29,11.14 30,14.03 36,17.49 38,16.34 45,20.38"/><polygon fill="#577be6" points="11,13.453 22,7.102 29,11.144 18,17.494"/><polygon fill="#4d6dcc" points="19,20.381 30,14.03 29,11.144 18,17.494"/><polygon fill="#4460b3" points="21,26.155 24,27.887 18,31.351"/><polygon fill="#6189ff" points="34,26.732 27,22.691 26,24.423 19,20.381 18,17.494 11,13.453 8,18.649 11,27.309 18,31.351 21,26.155 24,27.887 27,36.547 34,40.588 37,35.392"/><polygon fill="#6189ff" points="20,30.196 25,33.083 27,38.856 25,42.321 20,39.434 18,33.66"/><polygon fill="#577be6" points="27,22.691 38,16.34 45,20.381 34,26.732"/><polygon fill="#4d6dcc" points="37,35.392 48,29.041 45,20.381 34,26.732"/><polygon fill="#4460b3" points="37,35.392 48,29.041 45,34.238 34,40.588"/><polygon fill="#577be6" points="20,30.196 28,25.577 33,28.464 25,33.083"/><polygon fill="#4d6dcc" points="27,38.856 35,34.238 33,28.464 25,33.083"/><polygon fill="#4460b3" points="27,38.856 35,34.238 33,37.702 25,42.321"/><polygon fill="#6189ff" points="4,20.959 9,23.845 11,29.619 9,33.083 4,30.196 2,24.423"/><polygon fill="#66e1ff" points="5,22.691 8,24.423 9.499,28.752 8,31.351 5,29.619 3.42,25.242"/><polygon fill="#66e1ff" points="21,31.928 24,33.66 25.499,37.99 24,40.588 21,38.856 19.42,34.48"/><polygon fill="#577be6" points="4,20.959 12,16.34 17,19.227 9,23.845"/><polygon fill="#4d6dcc" points="11,29.619 19,25 17,19.227 9,23.845"/><polygon fill="#4460b3" points="11,29.619 19,25 17,28.464 9,33.083"/></svg>